Coordinates
version=1
nRows=4
nColumns=114
inDegrees=yes

Units are S.I. units (second, meters, Newtons, ...)
If the header above contains a line with 'inDegrees', this indicates whether rotational values are in degrees (yes) or radians (no).

endheader 
time	pelvis_tilt	pelvis_list	pelvis_rotation	pelvis_tx	pelvis_ty	pelvis_tz	hip_flexion_l	hip_adduction_l	hip_rotation_l	hip_flexion_r	hip_adduction_r	hip_rotation_r	knee_angle_l	knee_angle_r	ankle_angle_l	ankle_angle_r	subtalar_angle_l	subtalar_angle_r	mtp_angle_l	mtp_angle_r	lumbar_extension	lumbar_bending	lumbar_rotation	arm_flex_l	arm_add_l	arm_rot_l	arm_flex_r	arm_add_r	arm_rot_r	elbow_flex_l	elbow_flex_r	pro_sup_l	pro_sup_r	addbrev_l/activation	addlong_l/activation	addmagDist_l/activation	addmagIsch_l/activation	addmagMid_l/activation	addmagProx_l/activation	bflh_l/activation	bfsh_l/activation	edl_l/activation	ehl_l/activation	fdl_l/activation	fhl_l/activation	gaslat_l/activation	gasmed_l/activation	glmax1_l/activation	glmax2_l/activation	glmax3_l/activation	glmed1_l/activation	glmed2_l/activation	glmed3_l/activation	glmin1_l/activation	glmin2_l/activation	glmin3_l/activation	grac_l/activation	iliacus_l/activation	perbrev_l/activation	perlong_l/activation	piri_l/activation	psoas_l/activation	recfem_l/activation	sart_l/activation	semimem_l/activation	semiten_l/activation	soleus_l/activation	tfl_l/activation	tibant_l/activation	tibpost_l/activation	vasint_l/activation	vaslat_l/activation	vasmed_l/activation	addbrev_r/activation	addlong_r/activation	addmagDist_r/activation	addmagIsch_r/activation	addmagMid_r/activation	addmagProx_r/activation	bflh_r/activation	bfsh_r/activation	edl_r/activation	ehl_r/activation	fdl_r/activation	fhl_r/activation	gaslat_r/activation	gasmed_r/activation	glmax1_r/activation	glmax2_r/activation	glmax3_r/activation	glmed1_r/activation	glmed2_r/activation	glmed3_r/activation	glmin1_r/activation	glmin2_r/activation	glmin3_r/activation	grac_r/activation	iliacus_r/activation	perbrev_r/activation	perlong_r/activation	piri_r/activation	psoas_r/activation	recfem_r/activation	sart_r/activation	semimem_r/activation	semiten_r/activation	soleus_r/activation	tfl_r/activation	tibant_r/activation	tibpost_r/activation	vasint_r/activation	vaslat_r/activation	vasmed_r/activation	
          6.25236842	        -33.16413016	         -1.17648665	         16.62918374	         -5.64230279	          1.24930185	          0.45409445	         -0.62990439	        -27.84031258	        -11.30909248	         48.34635156	          3.55156043	        -30.42792923	         30.79068194	         42.79318556	          8.49151031	         23.78075445	          8.93295278	          2.96523967	          1.06794988	          0.77591441	         -6.85326552	         47.47364815	         -1.85131238	         31.39232293	        -10.40783576	         39.37826838	        -28.46385606	        -24.59316932	        -13.30017451	         81.89864127	        107.48592986	         77.69567315	         82.37708527	          0.99999998	          1.00000000	          0.15329642	          0.01000003	          0.99999999	          0.99999997	          0.09886816	          0.99999994	          0.99999997	          0.99999986	          0.06174983	          0.02694204	          0.01509933	          0.01509933	          0.01000000	          0.00999999	          0.01000000	          0.01000003	          0.01000000	          0.01000000	          0.27018752	          0.01000003	          0.13346817	          0.99999995	          1.00000000	          0.07859770	          0.57554462	          0.18175073	          1.00000000	          0.08798084	          0.99999996	          0.91941501	          0.11862658	          0.01000000	          0.41983077	          0.99999997	          0.02191696	          0.00999999	          0.00999999	          0.00999999	          0.29048676	          0.18044374	          0.29048695	          0.27857635	          0.64535647	          0.99999924	          0.80392031	          0.29049202	          0.66228036	          0.54123321	          0.13833399	          0.03292279	          0.03437268	          0.01743993	          0.12741202	          0.12741201	          0.43861584	          0.05664070	          0.09716213	          0.98034796	          0.03253405	          0.05876646	          0.12741203	          0.29048680	          0.01509936	          0.05281407	          0.02581848	          0.99999969	          0.40615111	          0.06183328	          0.99999995	          0.36791103	          0.29048674	          0.01463939	          0.01000000	          0.66228101	          0.11719841	          0.15049018	          0.11399809	          0.03204762	
          6.27263158	        -34.30815100	          0.70932945	         11.28493668	         -5.51961303	          1.26006681	          0.45538936	          1.13677385	        -24.27088243	         -7.63792436	         42.76310930	          7.24265918	        -23.01997947	         47.95873693	         41.02679844	         18.79260685	         31.66615823	         -4.00374214	          4.18156811	          1.07931517	          0.50699018	         -8.06681337	         42.12767150	          0.83714502	         16.48805913	        -20.78092142	         31.62974002	        -15.41956373	        -21.14986405	         -6.87139585	         84.01908940	        107.17567399	         81.42798047	         88.27721990	          0.99999986	          0.78435336	          0.10152527	          0.01000002	          0.69215133	          0.99999975	          0.06547854	          0.99999977	          0.99999992	          0.99999997	          0.04089575	          0.01784319	          0.01000000	          0.00999999	          0.01000000	          0.01000000	          0.01000000	          0.01000005	          0.01000002	          0.01000000	          0.17894000	          0.01000025	          0.08839340	          0.99997411	          0.99999996	          0.99999941	          0.43184128	          0.12037000	          0.99999996	          0.51918498	          0.99999996	          0.71028689	          0.07856411	          0.00999999	          0.61700485	          1.00000000	          0.01451518	          0.00999999	          0.00999999	          0.00999999	          0.99999985	          0.11950441	          0.19238392	          0.18449575	          0.99999995	          0.99999987	          0.53242092	          0.19238728	          0.43861558	          0.35844842	          0.13567384	          0.19557697	          0.02276450	          0.01509695	          0.08438256	          0.08438253	          0.29048692	          0.03751204	          0.06434861	          0.64926558	          0.02154668	          0.03891990	          0.08438254	          0.99999949	          0.01000002	          0.17852952	          0.03442463	          0.66228054	          0.99999977	          0.04095101	          0.66228104	          0.24837769	          0.19238377	          0.03373042	          0.01000000	          0.43861602	          0.12524718	          0.17613152	          0.17893881	          0.17893856	
          6.29289474	        -34.92098812	          2.22559434	          6.68785147	         -5.40028404	          1.26929527	          0.45411315	          5.24336070	        -19.33625925	         -1.12720550	         35.31692253	         10.17281116	        -16.49474691	         68.57348779	         35.41496001	         29.88498124	         35.61029448	        -17.82250711	          4.67108762	          0.86801966	          0.30590606	         -9.13053249	         37.65394539	          3.40999578	          4.99854589	        -30.37979416	         34.40505226	         -5.60276793	        -16.11171721	         -1.87882443	         79.73298577	        105.96129100	         84.49918939	         93.98040709	          0.66240813	          0.99999945	          0.06723826	          0.01000006	          0.45843846	          0.99999973	          0.04561042	          0.66228064	          0.66228076	          0.66228074	          0.11460809	          0.01181723	          0.00999999	          0.00999999	          0.01000018	          0.01000021	          0.01509918	          0.01000000	          0.01000006	          0.01086754	          0.11850852	          0.01000083	          0.05854125	          0.66226360	          0.66228078	          0.66228041	          0.31684010	          0.07971873	          0.99999947	          0.60229739	          0.99999946	          0.47040941	          0.05203150	          0.00999999	          0.88465853	          0.67769207	          0.01000000	          0.01000004	          0.14258092	          0.01000003	          0.99999993	          0.07914547	          0.12741217	          0.12218798	          0.66228084	          0.99999953	          0.35261210	          0.12741439	          0.29880133	          0.23739387	          0.28618006	          0.14651274	          0.01507655	          0.01000026	          0.16702119	          0.11828082	          0.19238389	          0.02484350	          0.04261686	          0.42999609	          0.01426997	          0.02577590	          0.05588497	          0.99999985	          0.01000005	          0.11823679	          0.02279894	          0.60500173	          0.66228064	          0.50294817	          0.43861597	          0.86341029	          0.12741206	          0.04904107	          0.01000003	          0.29048703	          0.22642047	          0.11850779	          0.11850783	          0.11850780	
          6.31315789	        -33.27017575	          3.98333954	          6.00920327	         -5.28248290	          1.27859519	          0.44743868	          9.63116374	        -13.79478988	          5.89261965	         24.08912185	         10.18223256	        -13.18408579	         89.79506261	         26.33090404	         36.60976865	         36.95147801	        -28.57967944	          5.07310221	          0.51429788	          0.23283830	         -9.65380007	         33.27382743	          0.05886942	         -4.24816462	        -38.21114848	         50.17789571	          2.52663732	         -9.47811309	          4.40636645	         66.78025669	        103.57764506	         86.29071447	         98.95681419	          0.99999976	          0.99999986	          0.04453063	          0.01000016	          0.99999467	          0.99999863	          0.03779554	          0.43861576	          0.43861581	          0.44146064	          0.07590294	          0.21316704	          0.20838515	          0.20342468	          0.01000001	          0.01000000	          0.01000001	          0.02278514	          0.01000008	          0.01000002	          0.07848592	          0.01000094	          0.03877074	          0.43860443	          0.99999996	          0.43863321	          0.28261647	          0.05279618	          0.99999993	          1.00000000	          0.76067888	          0.75665714	          0.03445946	          0.21141665	          0.99999994	          0.44882240	          0.01000047	          0.23520469	          0.89208607	          0.17894077	          0.66228067	          0.05241652	          0.08438262	          0.08092274	          0.43861583	          0.99999991	          0.23352819	          0.08438411	          0.30618786	          0.39320937	          0.22770403	          0.09703303	          0.01000024	          0.01000023	          0.99999985	          0.07848540	          0.12741214	          0.01645337	          0.02822435	          0.86213300	          0.01000001	          0.01707089	          0.03701161	          0.99999997	          0.01000001	          0.07830599	          0.01509933	          0.99999996	          0.90730313	          0.99999996	          0.29048695	          0.57181998	          0.08438255	          0.03247897	          0.01000000	          0.51652398	          0.33913966	          0.07848543	          0.07848545	          0.07848544	
